PathFileType	4	(X/Y/Z)	E:\Qualisys_Data\Carbon_Farble_Plate\Data\Amateur_Runner\S14\T1\S14T1V14_c3d.trc
DataRate	CameraRate	NumFrames	NumMarkers	Units	OrigDataRate	OrigDataStartFrame	OrigNumFrames
200.000000	200.000000	4	39	mm	200.000000	258	344
Frame#	Time	LSHO			RSHO			LICST			RICST			LASIS			LHEEL			RASIS			LTROC			RTROC			SACR			LTH1			LSK4			LTH2			LTH3			RHM5			LSK2			LTH4			RTH1			LTOE			RTH2			RTH3			RTH4			LLEP			RLEP			LSK1			LSK3			RSK1			LHM5			RSK2			LFT1			RSK3			RSK4			LLME			RLME			RTOE			RHEEL			RFT1			RFT2			LFT2			
		X1	Y1	Z1	X2	Y2	Z2	X3	Y3	Z3	X4	Y4	Z4	X5	Y5	Z5	X6	Y6	Z6	X7	Y7	Z7	X8	Y8	Z8	X9	Y9	Z9	X10	Y10	Z10	X11	Y11	Z11	X12	Y12	Z12	X13	Y13	Z13	X14	Y14	Z14	X15	Y15	Z15	X16	Y16	Z16	X17	Y17	Z17	X18	Y18	Z18	X19	Y19	Z19	X20	Y20	Z20	X21	Y21	Z21	X22	Y22	Z22	X23	Y23	Z23	X24	Y24	Z24	X25	Y25	Z25	X26	Y26	Z26	X27	Y27	Z27	X28	Y28	Z28	X29	Y29	Z29	X30	Y30	Z30	X31	Y31	Z31	X32	Y32	Z32	X33	Y33	Z33	X34	Y34	Z34	X35	Y35	Z35	X36	Y36	Z36	X37	Y37	Z37	X38	Y38	Z38	X39	Y39	Z39	

259	1.29	1275.470581054688	1378.04638671875	-504.4132080078125	1402.375732421875	1393.565185546875	-233.3693542480469	1286.238647460938	945.3604736328124	-463.5426025390625	1356.10107421875	949.2575073242188	-193.7584075927734	1333.161499023438	899.9803466796875	-440.8248291015625	1351.876831054688	70.33340454101562	-317.0199890136719	1376.436157226562	904.0706176757812	-214.5980072021484	1194.636962890625	820.5123291015625	-461.1554260253906	1229.395263671875	865.1334228515625	-139.2667846679688	1182.904296875	954.9759521484376	-307.9303894042969	1361.97998046875	623.4281616210938	-481.2074279785156	1362.721557617188	264.246826171875	-411.1387939453125	1299.193603515625	594.351806640625	-446.4144897460938	1415.31396484375	541.454345703125	-459.0205078125	785.9395751953125	168.821044921875	-163.2184448242188	1365.68603515625	361.103271484375	-435.8310241699219	1347.950317382812	510.9014587402344	-430.9810485839844	1305.68798828125	605.246826171875	-155.1067504882812	1599.2470703125	65.32801818847656	-386.9012756347656	1232.770629882812	625.2023315429688	-135.6243438720703	1280.878784179688	508.44482421875	-171.4091491699219	1202.017822265625	528.536865234375	-148.6693725585938	1418.99365234375	468.02880859375	-448.1487121582031	1195.329711914062	457.7152099609375	-153.2724914550781	1447.821044921875	356.5512084960938	-444.5199584960938	1441.194213867188	256.18505859375	-422.3247680664062	1106.2705078125	371.9325866699219	-149.9075469970703	1524.215698242188	48.79693984985352	-433.3466796875	1068.068481445312	449.9026184082031	-141.4695739746094	1368.031005859375	45.40267944335938	-292.6366882324219	1009.89453125	333.8770141601562	-162.8075561523438	981.810302734375	408.91796875	-155.6613616943359	1397.1259765625	87.83084869384766	-385.4421081542969	834.739501953125	311.4150085449219	-176.9036407470703	811.1432495117188	103.2131118774414	-226.7559509277344	806.6983642578125	362.1731567382812	-231.3621826171875	782.470703125	347.2013854980469	-264.4212951660156	780.6062622070312	357.455078125	-205.5174255371094	1347.442260742188	42.79513549804688	-343.1925659179688
260	1.295	1290.994873046875	1372.522827148438	-506.7318420410156	1416.103271484375	1389.059936523438	-233.3489532470703	1301.187255859375	940.2548828125	-463.4453735351562	1370.36962890625	944.031982421875	-194.0502777099609	1346.92919921875	896.0966796875	-441.6337585449219	1354.198974609375	72.60954284667969	-316.9083557128906	1390.29931640625	899.1657104492188	-215.3286895751953	1208.486450195312	815.7462158203125	-461.6183471679688	1244.48095703125	858.935302734375	-139.4383850097656	1196.569946289062	950.2434692382812	-308.1375122070312	1378.705200195312	622.2527465820312	-482.0331420898438	1374.755249023438	265.4946899414062	-414.0293579101562	1315.828857421875	592.427978515625	-448.4408874511719	1433.567016601562	540.3995971679688	-459.4781188964844	805.1178588867188	170.1626739501953	-163.9222106933594	1380.489624023438	361.6907348632812	-440.2610473632812	1365.634643554688	509.3314514160156	-433.7048950195312	1324.633544921875	600.9302978515625	-154.9352416992188	1602.077880859375	61.87929153442383	-386.7491149902344	1251.616333007812	619.3836059570312	-135.1141052246094	1301.2001953125	503.0604553222656	-171.4527435302734	1222.107421875	521.8824462890625	-148.5377349853516	1438.156860351562	467.2627258300781	-449.1658020019531	1217.247680664062	451.1754760742188	-152.7649841308594	1463.37744140625	354.6175842285156	-444.1087341308594	1453.63671875	255.1722869873047	-421.9751892089844	1127.197387695312	367.5315856933594	-150.0207824707031	1526.594970703125	46.87955856323242	-434.6824951171875	1090.927856445312	445.2737731933594	-141.5311584472656	1369.039306640625	46.78655242919922	-292.6202392578125	1030.183227539062	331.1453247070312	-163.2190399169922	1003.461791992188	406.1647033691406	-155.7535400390625	1399.325927734375	89.04606628417969	-386.4337158203125	854.9104614257812	312.5798645019531	-178.02197265625	830.70263671875	104.1042404174805	-227.098388671875	827.0934448242188	363.2602844238281	-232.1264190673828	802.738525390625	347.7569274902344	-265.2610778808594	800.580810546875	358.5839538574219	-207.3770141601562	1348.798828125	44.84856796264648	-343.4097900390625
261	1.3	1306.876586914062	1367.153686523438	-508.7375793457031	1429.529296875	1385.048950195312	-233.3511962890625	1307.237670898438	937.7264404296876	-464.9779663085938	1384.550415039062	938.4981079101562	-194.5814666748047	1360.135864257812	892.1478881835938	-442.3392944335938	1356.648315429688	74.45255279541016	-317.2664489746094	1404.255004882812	893.9968872070312	-216.4379119873047	1221.525268554688	810.5454711914062	-461.8497619628906	1259.838500976562	852.48828125	-139.6350555419922	1209.644653320312	945.3619995117188	-307.9842224121094	1395.307983398438	621.564453125	-483.5250854492188	1387.135009765625	266.13720703125	-415.1321411132812	1332.49462890625	590.763427734375	-450.4368591308594	1451.3701171875	540.6734619140625	-460.9132080078125	825.6126708984375	171.4367980957031	-164.6610107421875	1396.12353515625	361.5154418945312	-442.396484375	1383.246948242188	508.2458190917969	-435.5298461914062	1343.65625	596.160400390625	-155.4555358886719	1605.450439453125	58.27228927612305	-386.0534057617188	1270.229125976562	613.0319213867188	-135.4057922363281	1322.302001953125	497.8677978515625	-171.3543243408203	1242.95361328125	514.973388671875	-148.1088104248047	1456.903930664062	467.0276489257812	-450.0207824707031	1238.834716796875	445.0242614746094	-152.4602966308594	1478.011474609375	352.8013305664062	-443.962158203125	1465.776733398438	253.8955230712891	-421.4472045898438	1148.940063476562	363.4386901855469	-149.9828796386719	1528.777587890625	46.43051910400391	-434.3525085449219	1113.603393554688	441.2992553710938	-141.3690795898438	1371.2216796875	48.17324447631836	-292.83447265625	1051.460693359375	328.5973815917969	-163.840576171875	1025.60888671875	404.0703430175781	-156.1633758544922	1403.183715820312	90.96613311767578	-386.7940673828125	875.2835693359375	313.0932006835938	-179.1793060302734	851.3296508789062	104.907341003418	-227.3319549560547	847.7991943359375	364.0249328613281	-233.3676605224609	823.8333740234375	348.3093872070312	-266.94189453125	821.3289794921875	359.4845581054688	-208.6173553466797	1350.55859375	47.04418563842773	-343.6874389648438
262	1.305	1322.740478515625	1361.807495117188	-510.8420715332031	1443.165893554688	1381.227172851562	-233.4421691894531	1319.902954101562	934.6514892578124	-465.1082153320312	1398.326049804688	933.5327758789062	-195.979248046875	1373.44873046875	888.9396362304688	-443.5747680664062	1359.108642578125	76.1113510131836	-317.0594482421875	1417.845947265625	889.2265014648438	-217.3418121337891	1233.226928710938	807.2084350585938	-461.8251953125	1274.815307617188	846.3404541015625	-139.834228515625	1222.586669921875	940.7254028320312	-307.7249755859375	1411.292358398438	620.9995727539062	-484.7635803222656	1398.360107421875	267.0208740234375	-417.3543701171875	1348.296875	588.8194580078125	-452.8256225585938	1468.272583007812	540.8858642578125	-462.4702758789062	846.8767700195312	172.1492156982422	-165.0335083007812	1411.061279296875	362.2653503417969	-444.9829711914062	1400.427490234375	507.4113159179688	-438.2101440429688	1362.715209960938	591.8363647460938	-156.0584106445312	1608.246948242188	54.71519088745117	-385.4249877929688	1288.91650390625	607.1412353515625	-135.400634765625	1343.456176757812	493.3905944824219	-171.7480926513672	1263.78955078125	508.5656433105469	-147.9961853027344	1475.130493164062	466.7476806640625	-450.6119995117188	1261.480346679688	438.7088928222656	-154.2805023193359	1492.898315429688	351.3256530761719	-444.0691528320312	1477.386352539062	252.9002227783203	-420.5219421386719	1171.194213867188	359.3190612792969	-150.6122283935547	1530.30419921875	46.23307418823242	-433.8795166015625	1136.788940429688	437.6042175292969	-141.4623718261719	1372.465576171875	49.52129745483398	-292.7728576660156	1072.95458984375	325.7974243164062	-164.5888214111328	1048.303100585938	401.4878845214844	-156.3216857910156	1407.306030273438	92.99551391601562	-387.4311218261719	896.3644409179688	313.6302185058594	-180.1042327880859	872.586669921875	105.4004058837891	-227.5800476074219	869.1935424804688	364.5556640625	-234.6349334716797	845.649658203125	348.6297912597656	-267.8038940429688	842.5899047851562	360.2787170410156	-209.9448089599609	1351.765502929688	49.23530960083008	-344.1712951660156
